<svg width="45" height="44" viewBox="0 0 45 44" fill="none" xmlns="http://www.w3.org/2000/svg">
<path d="M24.0138 6.5C24.3996 6.6292 24.8106 6.61305 25.2047 6.67765C27.9053 7.09755 30.3206 8.07463 32.2496 10.0046C33.7424 11.4984 34.5727 13.2992 34.8159 15.3664C35.143 18.0554 34.8075 20.6555 33.6753 23.1426C32.6605 25.3794 31.1509 27.2044 28.811 28.2622C27.0834 29.0374 25.2718 29.2473 23.4016 28.7871C22.7558 28.6256 22.1939 28.2864 21.6488 27.9311C21.2798 27.6889 20.9024 27.4466 20.5334 27.2044C20.223 27.0025 20.2147 27.0106 20.1392 27.3739C19.8037 29.0374 19.4431 30.6928 18.8644 32.2916C18.3109 33.8339 17.5896 35.2955 16.4323 36.5148C16.0968 36.8701 15.6858 37.1528 15.342 37.5C15.3252 37.5 15.3001 37.5 15.2833 37.5C15.1156 36.3049 15.0568 35.1098 15.082 33.9066C15.1323 31.6537 15.5684 29.4654 16.1303 27.2851C16.6419 25.2906 17.2542 23.3203 17.6987 21.3096C17.7322 21.14 17.7238 21.0027 17.6399 20.8493C16.6419 18.9598 17.0109 15.9962 18.4367 14.3974C19.376 13.3395 20.5921 13.0408 21.8752 13.5414C22.7978 13.9048 23.259 14.575 23.3177 15.5198C23.3764 16.5534 23.0829 17.5386 22.781 18.5156C22.3952 19.7915 21.9004 21.035 21.6572 22.3513C21.5649 22.8358 21.5062 23.3364 21.5817 23.829C21.7327 24.9353 22.4371 25.5893 23.7035 25.8154C25.5151 26.1465 26.9408 25.4924 28.0898 24.1843C29.1213 23.0134 29.7084 21.6245 30.0774 20.1549C30.5219 18.3703 30.6142 16.5695 30.2368 14.7527C29.6497 11.886 27.7627 10.2064 24.9112 9.55236C21.8836 8.8579 19.1747 9.70578 16.8013 11.555C15.0652 12.9116 13.9582 14.6558 13.6311 16.8118C13.4047 18.2895 13.4969 19.7269 14.4362 21.0189C14.6711 21.3419 14.8556 21.6972 14.9646 22.0767C15.191 22.8842 14.9227 23.6029 14.5453 24.3135C14.4614 24.4588 14.3608 24.4023 14.2517 24.3781C12.155 23.8774 10.7796 22.6258 10.2848 20.599C9.23648 16.3434 10.528 12.1121 14.3859 9.18898C16.3652 7.68703 18.6212 6.823 21.1288 6.57267C21.2127 6.5646 21.3217 6.60498 21.3804 6.5C22.2526 6.5 23.1332 6.5 24.0138 6.5Z" stroke="#231213" stroke-width="1.5"/>
</svg>
